<svg xmlns="http://www.w3.org/2000/svg" xmlns:xlink="http://www.w3.org/1999/xlink" width="51" height="163.000732421875" viewBox="0 0 51 163.000732421875" fill="none">
<rect x="0" y="0" width="15.785713195800781" height="23.061676025390625"   fill="#3887E0" >
</rect>
<rect x="0" y="23.0615234375" width="15.785713195800781" height="23.061676025390625"   fill="#588ECC" >
</rect>
<rect x="0" y="46.1234130859375" width="15.785713195800781" height="23.061676025390625"   fill="#7BABE3" >
</rect>
<rect x="0" y="69.18505859375" width="15.785713195800781" height="23.061676025390625"   fill="#38DEE0" >
</rect>
<rect x="0" y="92.246826171875" width="15.785713195800781" height="23.06170654296875"   fill="#38E0B6" >
</rect>
<rect x="0" y="0" width="15.785713195800781" height="138.5186767578125"   fill="url(#linear_fill_194_6)" >
</rect>
<rect x="0" y="138.3701171875" width="15.785713195800781" height="23.06170654296875"   fill="url(#linear_fill_194_7)" >
</rect>
<g >
<path     fill="#FFFFFF" fill-opacity="0.9" d="M46.904 47.8375C45.38 48.2215 42.764 48.4975 40.556 48.6295C40.664 48.8695 40.796 49.2655 40.832 49.5055C43.064 49.4095 45.764 49.1455 47.552 48.7135L46.904 47.8375ZM43.448 49.7455C43.712 50.2735 43.952 50.9695 44.012 51.4015L44.912 51.0655C44.828 50.6455 44.564 49.9615 44.3 49.4695L43.448 49.7455ZM46.46 49.2415C46.244 49.9015 45.848 50.8375 45.524 51.4255L46.316 51.7735C46.664 51.2215 47.096 50.3935 47.48 49.6255L46.46 49.2415ZM37.652 48.7375C38.264 49.2895 39.056 50.0815 39.428 50.5855L40.184 49.8295C39.8 49.3375 38.972 48.5815 38.36 48.0655L37.652 48.7375ZM40.94 55.6015L40.94 58.3135L46.4 58.3135L46.4 58.8895L47.432 58.8895L47.432 55.5295L46.4 55.5295L46.4 57.3775L44.66 57.3775L44.66 55.0015L47.972 55.0015L47.972 54.0415L44.66 54.0415L44.66 52.8295L47.468 52.8295L47.468 51.8815L42.752 51.8815L42.92 51.4975L42.056 51.2815L42.644 51.0415C42.524 50.6815 42.212 50.1055 41.936 49.6615L41.084 49.9855C41.36 50.4295 41.636 51.0295 41.744 51.4135L41.912 51.3415C41.612 52.0735 41.096 52.7575 40.472 53.2135C40.712 53.3575 41.108 53.6695 41.288 53.8375C41.6 53.5615 41.912 53.2135 42.188 52.8295L43.592 52.8295L43.592 54.0415L40.448 54.0415L40.448 55.0015L43.592 55.0015L43.592 57.3775L41.972 57.3775L41.972 55.6015L40.94 55.6015ZM37.028 51.4615L37.028 52.5535L38.564 52.5535L38.564 56.6575C38.564 57.2815 38.228 57.7015 38.012 57.9055C38.192 58.0615 38.48 58.4215 38.576 58.6495C38.744 58.3735 39.044 58.0495 40.832 56.3215C40.712 56.1055 40.532 55.6615 40.436 55.3615L39.572 56.1775L39.572 51.4615L37.028 51.4615ZM38.816 65.1175L38.816 66.0415L46.244 66.0415L46.244 65.1175L38.816 65.1175ZM38.816 63.2935L38.816 64.2055L46.244 64.2055L46.244 63.2935L38.816 63.2935ZM38.696 67.0375L38.696 70.8535L39.812 70.8535L39.812 70.3855L45.212 70.3855L45.212 70.8175L46.376 70.8175L46.376 67.0375L38.696 67.0375ZM39.812 69.4375L39.812 67.9975L45.212 67.9975L45.212 69.4375L39.812 69.4375ZM41.348 59.9935C41.696 60.4255 42.068 60.9895 42.296 61.4455L37.112 61.4455L37.112 62.4295L47.948 62.4295L47.948 61.4455L43.448 61.4455L43.616 61.3975C43.4 60.9175 42.92 60.2095 42.464 59.6815L41.348 59.9935ZM41.72 71.9215C41.516 72.3775 41.144 73.0615 40.856 73.4935L41.588 73.8295C41.912 73.4455 42.296 72.8575 42.668 72.3175L41.72 71.9215ZM37.448 72.3175C37.76 72.8095 38.06 73.4695 38.156 73.8895L39.02 73.5055C38.912 73.0855 38.588 72.4495 38.264 71.9815L37.448 72.3175ZM41.228 78.8575C40.976 79.3855 40.64 79.8535 40.244 80.2495C39.848 80.0455 39.44 79.8535 39.044 79.6735L39.5 78.8575L41.228 78.8575ZM37.664 80.0455C38.228 80.2735 38.864 80.5735 39.452 80.8855C38.72 81.3775 37.856 81.7255 36.92 81.9295C37.112 82.1455 37.328 82.5415 37.436 82.7935C38.528 82.4935 39.536 82.0495 40.376 81.3895C40.76 81.6175 41.096 81.8335 41.36 82.0375L42.044 81.2935C41.78 81.1135 41.456 80.9215 41.108 80.7175C41.732 80.0215 42.212 79.1695 42.512 78.1135L41.9 77.8855L41.72 77.9215L39.956 77.9215L40.184 77.3695L39.188 77.1775C39.092 77.4175 38.996 77.6695 38.876 77.9215L37.292 77.9215L37.292 78.8575L38.396 78.8575C38.156 79.3015 37.892 79.7095 37.664 80.0455ZM39.452 71.7175L39.452 73.9135L37.064 73.9135L37.064 74.8255L39.104 74.8255C38.516 75.5215 37.664 76.1695 36.884 76.4935C37.1 76.7095 37.352 77.0935 37.484 77.3455C38.156 76.9735 38.876 76.3975 39.452 75.7615L39.452 77.0335L40.508 77.0335L40.508 75.5335C41.036 75.9295 41.648 76.4215 41.936 76.6975L42.548 75.8935C42.296 75.7255 41.42 75.1735 40.82 74.8255L42.884 74.8255L42.884 73.9135L40.508 73.9135L40.508 71.7175L39.452 71.7175ZM43.952 71.8015C43.676 73.9255 43.136 75.9535 42.188 77.2135C42.428 77.3695 42.86 77.7415 43.028 77.9215C43.292 77.5255 43.544 77.0815 43.76 76.5895C44.012 77.6455 44.324 78.6175 44.732 79.4935C44.072 80.5735 43.16 81.4015 41.9 81.9895C42.104 82.2055 42.404 82.6735 42.512 82.9135C43.7 82.2895 44.6 81.5095 45.284 80.5255C45.86 81.4615 46.58 82.2175 47.468 82.7575C47.636 82.4815 47.96 82.0735 48.212 81.8695C47.252 81.3535 46.496 80.5255 45.896 79.4935C46.508 78.2815 46.892 76.8175 47.144 75.0535L47.936 75.0535L47.936 74.0095L44.6 74.0095C44.756 73.3495 44.888 72.6535 44.996 71.9455L43.952 71.8015ZM46.088 75.0535C45.92 76.2895 45.68 77.3575 45.32 78.2935C44.924 77.3095 44.624 76.2175 44.42 75.0535L46.088 75.0535ZM39.692 85.8655L45.236 85.8655L45.236 86.4295L39.692 86.4295L39.692 85.8655ZM39.692 84.7255L45.236 84.7255L45.236 85.2775L39.692 85.2775L39.692 84.7255ZM38.6 84.1015L38.6 87.0415L46.376 87.0415L46.376 84.1015L38.6 84.1015ZM37.088 87.4975L37.088 88.3255L47.936 88.3255L47.936 87.4975L37.088 87.4975ZM39.452 90.6175L41.936 90.6175L41.936 91.1815L39.452 91.1815L39.452 90.6175ZM43.04 90.6175L45.584 90.6175L45.584 91.1815L43.04 91.1815L43.04 90.6175ZM39.452 89.4415L41.936 89.4415L41.936 90.0055L39.452 90.0055L39.452 89.4415ZM43.04 89.4415L45.584 89.4415L45.584 90.0055L43.04 90.0055L43.04 89.4415ZM37.052 93.7255L37.052 94.5775L47.984 94.5775L47.984 93.7255L43.04 93.7255L43.04 93.1375L46.952 93.1375L46.952 92.3815L43.04 92.3815L43.04 91.8295L46.712 91.8295L46.712 88.7935L38.384 88.7935L38.384 91.8295L41.936 91.8295L41.936 92.3815L38.084 92.3815L38.084 93.1375L41.936 93.1375L41.936 93.7255L37.052 93.7255ZM40.172 100.373L40.172 101.369L47 101.369L47 100.373L40.172 100.373ZM39.14 97.2415L46.076 97.2415L46.076 98.5015L39.14 98.5015L39.14 97.2415ZM38 96.2695L38 99.8095C38 101.705 37.904 104.393 36.812 106.265C37.1 106.373 37.616 106.661 37.832 106.841C38.984 104.861 39.14 101.849 39.14 99.7975L39.14 99.4735L47.216 99.4735L47.216 96.2695L38 96.2695ZM40.076 106.745C40.484 106.577 41.096 106.529 46.016 106.181C46.184 106.481 46.34 106.757 46.448 106.985L47.504 106.481C47.12 105.761 46.316 104.537 45.704 103.637L44.708 104.057C44.948 104.429 45.224 104.849 45.488 105.281L41.396 105.533C41.936 104.921 42.488 104.189 42.956 103.445L47.828 103.445L47.828 102.449L39.452 102.449L39.452 103.445L41.54 103.445C41.096 104.249 40.556 104.969 40.352 105.185C40.112 105.473 39.884 105.677 39.668 105.725C39.8 106.001 40.004 106.517 40.076 106.745ZM36.992 117.089L37.268 118.205C38.408 117.749 39.908 117.161 41.3 116.573L41.084 115.601C39.584 116.165 38.012 116.753 36.992 117.089ZM41.312 108.485L41.312 109.553L42.572 109.553C42.428 113.297 41.96 116.357 40.352 118.205C40.628 118.361 41.168 118.721 41.348 118.901C42.32 117.653 42.896 116.033 43.232 114.077C43.604 114.881 44.036 115.637 44.528 116.309C43.868 117.041 43.088 117.617 42.224 118.025C42.476 118.193 42.86 118.625 43.028 118.877C43.832 118.457 44.576 117.893 45.236 117.161C45.872 117.845 46.604 118.421 47.408 118.841C47.576 118.553 47.912 118.133 48.164 117.917C47.336 117.533 46.592 116.981 45.932 116.285C46.748 115.133 47.36 113.681 47.72 111.917L47.024 111.641L46.82 111.677L45.836 111.677C46.124 110.693 46.448 109.493 46.7 108.485L41.312 108.485ZM43.7 109.553L45.296 109.553C45.032 110.657 44.696 111.845 44.408 112.673L46.436 112.673C46.16 113.729 45.74 114.653 45.212 115.433C44.48 114.437 43.904 113.261 43.508 112.037C43.592 111.257 43.652 110.417 43.7 109.553ZM37.172 112.829C37.352 112.745 37.652 112.673 38.996 112.493C38.492 113.225 38.06 113.789 37.844 114.017C37.46 114.461 37.172 114.749 36.884 114.809C37.016 115.097 37.184 115.601 37.244 115.817C37.52 115.613 37.976 115.445 41.12 114.521C41.084 114.281 41.06 113.849 41.06 113.561L38.996 114.113C39.824 113.117 40.628 111.941 41.3 110.765L40.364 110.189C40.148 110.633 39.896 111.077 39.632 111.497L38.276 111.629C38.996 110.621 39.692 109.373 40.208 108.173L39.164 107.681C38.672 109.133 37.796 110.657 37.52 111.053C37.256 111.461 37.04 111.725 36.812 111.785C36.932 112.085 37.112 112.613 37.172 112.829Z">
</path>
</g>
<path   fill="rgba(99, 99, 99, 0.61)"  d="M24.9 161.891L24.9 1.04187L26.1 1.04187L26.1 161.891L24.9 161.891ZM25.9238 0.618011L25.9238 0.618011Q25.9656 0.659755 25.9984 0.70884Q26.0312 0.757926 26.0538 0.812468Q26.0764 0.867009 26.0879 0.924911Q26.0994 0.982812 26.0994 1.04185Q26.0994 1.10088 26.0879 1.15879Q26.0764 1.21669 26.0538 1.27123Q26.0312 1.32578 25.9984 1.37486Q25.9656 1.42395 25.9238 1.4657L21.6854 5.70409Q21.6437 5.74583 21.5946 5.77863Q21.5455 5.81143 21.491 5.83403Q21.4364 5.85662 21.3785 5.86814Q21.3206 5.87966 21.2616 5.87966Q21.2026 5.87966 21.1447 5.86814Q21.0868 5.85663 21.0322 5.83403Q20.9777 5.81144 20.9286 5.77864Q20.8795 5.74585 20.8378 5.7041L20.8378 5.7041Q20.796 5.66236 20.7632 5.61327Q20.7304 5.56418 20.7078 5.50964Q20.6852 5.4551 20.6737 5.3972Q20.6622 5.33929 20.6622 5.28026Q20.6622 5.22122 20.6737 5.16332Q20.6852 5.10542 20.7078 5.05088Q20.7304 4.99633 20.7632 4.94725Q20.796 4.89816 20.8378 4.85641L25.0762 0.618011Q25.1179 0.576268 25.167 0.54347Q25.2161 0.510673 25.2706 0.488081Q25.3252 0.46549 25.3831 0.453973Q25.441 0.442456 25.5 0.442456Q25.559 0.442456 25.6169 0.453973Q25.6748 0.46549 25.7294 0.488081Q25.7839 0.510673 25.833 0.54347Q25.8821 0.576268 25.9238 0.618011ZM25.0762 0.618011L25.0762 0.618011Q25.1179 0.576268 25.167 0.54347Q25.2161 0.510673 25.2706 0.488081Q25.3252 0.46549 25.3831 0.453973Q25.441 0.442456 25.5 0.442456Q25.559 0.442456 25.6169 0.453973Q25.6748 0.46549 25.7294 0.488081Q25.7839 0.510673 25.833 0.54347Q25.8821 0.576268 25.9238 0.618011L30.1622 4.85641Q30.204 4.89816 30.2368 4.94725Q30.2696 4.99633 30.2922 5.05088Q30.3148 5.10542 30.3263 5.16332Q30.3378 5.22122 30.3378 5.28026Q30.3378 5.33929 30.3263 5.3972Q30.3148 5.4551 30.2922 5.50964Q30.2696 5.56418 30.2368 5.61327Q30.204 5.66236 30.1622 5.7041L30.1622 5.7041Q30.1205 5.74585 30.0714 5.77865Q30.0223 5.81144 29.9678 5.83403Q29.9132 5.85663 29.8553 5.86814Q29.7974 5.87966 29.7384 5.87966Q29.6794 5.87966 29.6215 5.86814Q29.5636 5.85662 29.509 5.83403Q29.4545 5.81143 29.4054 5.77863Q29.3563 5.74583 29.3146 5.70409L25.0762 1.4657Q25.0344 1.42395 25.0016 1.37486Q24.9688 1.32578 24.9462 1.27123Q24.9236 1.21669 24.9121 1.15879Q24.9006 1.10088 24.9006 1.04185Q24.9006 0.982812 24.9121 0.924911Q24.9236 0.867009 24.9462 0.812468Q24.9688 0.757926 25.0016 0.70884Q25.0344 0.659755 25.0762 0.618011Z">
</path>
<g >
<path     fill="#8A8A8A"  d="M43.157 159.537C43.445 160.122 43.796 160.896 43.931 161.373L44.579 161.13C44.426 160.671 44.066 159.906 43.769 159.339L43.157 159.537ZM40.277 153.183C39.818 154.56 39.035 155.937 38.198 156.828C38.342 157.035 38.576 157.494 38.657 157.701C38.927 157.395 39.197 157.053 39.458 156.666L39.458 161.49L40.277 161.49L40.277 155.271C40.592 154.668 40.862 154.038 41.087 153.417L40.277 153.183ZM41.285 161.544C41.447 161.427 41.717 161.319 43.301 160.878C43.274 160.707 43.265 160.374 43.283 160.158L42.158 160.428L42.158 157.35L44.066 157.35C44.336 159.789 44.858 161.409 45.839 161.427C46.199 161.427 46.568 161.058 46.757 159.645C46.613 159.573 46.289 159.357 46.154 159.195C46.091 159.978 45.992 160.41 45.839 160.41C45.443 160.392 45.101 159.15 44.885 157.35L46.577 157.35L46.577 156.558L44.804 156.558C44.741 155.856 44.705 155.091 44.678 154.29C45.272 154.155 45.83 154.002 46.316 153.84L45.614 153.147C44.606 153.534 42.887 153.894 41.357 154.11L41.366 154.119L41.357 160.275C41.357 160.626 41.15 160.77 40.988 160.842C41.105 161.004 41.24 161.346 41.285 161.544ZM43.994 156.558L42.158 156.558L42.158 154.758C42.725 154.677 43.301 154.578 43.868 154.461C43.895 155.199 43.94 155.901 43.994 156.558Z">
</path>
</g>
<g >
<path     fill="#8A8A8A"  d="M40.655 4.33173L44.381 4.33173L44.381 5.00673L40.655 5.00673L40.655 4.33173ZM39.809 3.73773L39.809 5.60073L45.272 5.60073L45.272 3.73773L39.809 3.73773ZM41.87 1.82973L42.122 2.56773L38.513 2.56773L38.513 3.29673L46.451 3.29673L46.451 2.56773L43.085 2.56773C42.986 2.27973 42.851 1.91973 42.725 1.63173L41.87 1.82973ZM38.81 6.04173L38.81 10.0287L39.638 10.0287L39.638 6.74373L45.344 6.74373L45.344 9.19173C45.344 9.29973 45.299 9.33573 45.182 9.33573C45.074 9.34473 44.615 9.34473 44.246 9.32673C44.345 9.50673 44.462 9.76773 44.507 9.95673C45.11 9.96573 45.533 9.95673 45.812 9.85773C46.109 9.74973 46.199 9.58773 46.199 9.19173L46.199 6.04173L38.81 6.04173ZM40.502 7.19373L40.502 9.53373L41.303 9.53373L41.303 9.11073L44.381 9.11073L44.381 7.19373L40.502 7.19373ZM41.303 7.79673L43.625 7.79673L43.625 8.50773L41.303 8.50773L41.303 7.79673Z">
</path>
</g>
<defs>
<linearGradient id="linear_fill_194_6" x1="7.743365893936158" y1="0" x2="7.743365893936158" y2="138.5186767578125" gradientUnits="userSpaceOnUse">
<stop offset="0" stop-color="#3887E0"  />
<stop offset="1" stop-color="#43CF7C"  />
</linearGradient>
<linearGradient id="linear_fill_194_7" x1="8.429412989425659" y1="161.43182373046875" x2="8.429412989425659" y2="138.3701171875" gradientUnits="userSpaceOnUse">
<stop offset="0" stop-color="#FFFFFF"  />
<stop offset="1" stop-color="#43CE7E"  />
</linearGradient>
</defs>
</svg>
